# xmcd
#
# Track frame offsets: 
#        150
#        24682
#        36270
#        49232
#        61225
#        80462
#        92797
#        109485
#        124627
#        137460
#        146992
#        170237
#        198790
#        208800
#        234957
#        244865
#
# Disc length: 3407 seconds
#
# Revision: 7
# Processed by: cddbd v1.5.1PL0 Copyright (c) Steve Scherf et al.
# Submitted via: ExactAudioCopy v0.95b2
#
DISCID=ea0d4d10
DTITLE=Various Artist - House of Blues - Essential Blues 2 [CD1)
DYEAR=1996
DGENRE=Blues
TTITLE0=Muddy Waters - Mannish Boy
TTITLE1=John Lee Hooker - Boom, Boom
TTITLE2=Howlin' Wolf - Evil Is Goin' On
TTITLE3=Bobby Bland - Turn On Your Love Light
TTITLE4=Fenton Robinson - I Hear Some Blues Downstairs
TTITLE5=Little Walter - Juke
TTITLE6=Clifton Chenier - I'm A Hog For You Baby
TTITLE7=Z.Z. Hill - I Need Someone
TTITLE8=Albert King - Born Under a Bad Sign
TTITLE9=Junior Wells - Hoodoo Man Blues
TTITLE10=Son Seals - Figidaire Woman
TTITLE11=Buddy Guy - A Man and the Blues
TTITLE12=Otis Spann - Spann's Boogie Woogie
TTITLE13=Lonnie Brooks - Sweet Home Chicago
TTITLE14=James Brown - Messing With the Blues
TTITLE15=Jimmy Reed - Baby What You Want Me To Do
EXTD=
EXTT0=
EXTT1=
EXTT2=
EXTT3=
EXTT4=
EXTT5=
EXTT6=
EXTT7=
EXTT8=
EXTT9=
EXTT10=
EXTT11=
EXTT12=
EXTT13=
EXTT14=
EXTT15=
PLAYORDER=
